<svg width="40" height="22" viewBox="0 0 40 22" fill="none" xmlns="http://www.w3.org/2000/svg">
<path d="M23.5303 0.75293C27.4287 0.75293 30.589 3.81134 30.589 7.58408V21.2463C26.6906 21.2463 23.5303 18.1879 23.5303 14.4152V0.75293Z" fill="#08111A"/>
<path d="M32.9414 15.1964C32.9414 15.0167 33.0919 14.8711 33.2776 14.8711H33.7257C37.191 14.8711 40.0001 17.5896 40.0001 20.9432C40.0001 21.1109 39.8597 21.2468 39.6864 21.2468H32.9414V15.1964Z" fill="#0BC594"/>
<path d="M7.05871 10.9996C7.05871 12.886 8.63885 14.4152 10.588 14.4152C11.8875 14.4152 12.9409 15.4347 12.9409 16.6923V21.2463H10.588C8.89768 21.2463 7.29982 20.863 5.88223 20.1812C2.39591 18.5045 0 15.0229 0 10.9996C0 6.97639 2.39591 3.49474 5.88223 1.81804C7.29982 1.13628 8.89768 0.75293 10.588 0.75293C11.3967 0.75293 12.1842 0.840666 12.9409 1.00684C15.5956 1.58978 17.8713 3.13798 19.3534 5.25C20.5039 6.8894 21.1761 8.86854 21.1761 10.9996V21.2463C19.3727 21.2463 17.7272 20.5919 16.4795 19.5149C15.0301 18.2638 14.1174 16.4427 14.1174 14.4152V10.9996C14.1174 10.2497 13.8676 9.55618 13.4443 8.99279C13.2965 8.79623 13.1277 8.61553 12.9409 8.45376C12.3166 7.91295 11.492 7.58408 10.588 7.58408C8.63885 7.58408 7.05871 9.11328 7.05871 10.9996Z" fill="#08111A"/>
</svg>
