<?xml version="1.0" encoding="UTF-8"?> <svg xmlns="http://www.w3.org/2000/svg" width="181" height="42" viewBox="0 0 181 42" fill="none"><path d="M42.082 1.25C49.0542 1.25 54.7062 6.71983 54.7062 13.4672V37.9015C47.734 37.9015 42.082 32.4317 42.082 25.6844V1.25Z" fill="white"></path><path d="M58.9141 27.0808C58.9141 26.7595 59.1832 26.499 59.5153 26.499H60.3168C66.5143 26.499 71.5383 31.361 71.5383 37.3587C71.5383 37.6586 71.2871 37.9017 70.9772 37.9017H58.9141V27.0808Z" fill="#0BC594"></path><path d="M12.6242 19.5758C12.6242 22.9495 15.4502 25.6844 18.9362 25.6844C21.2603 25.6844 23.1443 27.5077 23.1443 29.7568V37.9015H18.9362C15.9131 37.9015 13.0554 37.216 10.5201 35.9966C4.28499 32.998 0 26.7712 0 19.5758C0 12.3804 4.28499 6.15362 10.5201 3.1549C13.0554 1.9356 15.9131 1.25 18.9362 1.25C20.3826 1.25 21.791 1.40691 23.1443 1.70411C27.892 2.74667 31.962 5.51557 34.6127 9.29281C36.6703 12.2248 37.8725 15.7644 37.8725 19.5758V37.9015C34.6472 37.9015 31.7043 36.7311 29.4729 34.8049C26.8806 32.5675 25.2484 29.3104 25.2484 25.6844V19.5758C25.2484 18.2345 24.8017 16.9942 24.0445 15.9866C23.7803 15.6351 23.4784 15.3119 23.1443 15.0226C22.0276 14.0554 20.5529 13.4672 18.9362 13.4672C15.4502 13.4672 12.6242 16.2021 12.6242 19.5758Z" fill="white"></path><path d="M102.48 18.8669L101.506 16.0237H94.271L93.2971 18.8669H88.4277L95.0502 0.773438H100.726L107.349 18.8669H102.48ZM95.6067 12.1465H100.17L97.8883 5.50359L95.6067 12.1465Z" fill="white"></path><path d="M113.043 8.24546C113.302 7.41832 113.822 6.78936 114.601 6.35856C115.399 5.91053 116.271 5.68652 117.217 5.68652V10.0807C116.197 9.92558 115.241 10.0892 114.351 10.5717C113.479 11.037 113.043 11.8556 113.043 13.0273V18.8689H108.869V5.945H113.043V8.24546Z" fill="white"></path><path d="M127.729 9.66504H124.863V14.24C124.863 14.7571 125.086 15.0845 125.531 15.2222C125.976 15.3601 126.709 15.4032 127.729 15.3515V18.8669C125.076 19.1253 123.24 18.8926 122.22 18.169C121.199 17.4279 120.689 16.1183 120.689 14.24V9.66504H118.463V5.94292H120.689V3.48737L124.863 2.32422V5.94292H127.729V9.66504Z" fill="white"></path><path d="M133.933 4.13681C133.45 4.58484 132.866 4.80886 132.18 4.80886C131.493 4.80886 130.9 4.58484 130.399 4.13681C129.916 3.67155 129.676 3.12013 129.676 2.48256C129.676 1.84497 129.916 1.30217 130.399 0.854144C130.9 0.388885 131.493 0.15625 132.18 0.15625C132.866 0.15625 133.45 0.388885 133.933 0.854144C134.434 1.30217 134.684 1.84497 134.684 2.48256C134.684 3.12013 134.434 3.67155 133.933 4.13681ZM130.093 18.8701V5.94616H134.267V18.8701H130.093Z" fill="white"></path><path d="M137.322 18.8689V0H141.495V18.8689H137.322Z" fill="white"></path><path d="M154.648 5.94293H158.822V18.8669H154.648V17.652C153.665 18.7031 152.283 19.2287 150.503 19.2287C148.665 19.2287 147.099 18.5739 145.8 17.2643C144.501 15.9375 143.852 14.3176 143.852 12.4049C143.852 10.4922 144.501 8.88101 145.8 7.57133C147.099 6.24449 148.665 5.58105 150.503 5.58105C152.283 5.58105 153.665 6.10663 154.648 7.15778V5.94293ZM148.944 14.7053C149.556 15.274 150.353 15.5583 151.337 15.5583C152.32 15.5583 153.118 15.274 153.73 14.7053C154.342 14.1367 154.648 13.3699 154.648 12.4049C154.648 11.4399 154.342 10.673 153.73 10.1045C153.118 9.53581 152.32 9.25149 151.337 9.25149C150.353 9.25149 149.556 9.53581 148.944 10.1045C148.332 10.673 148.026 11.4399 148.026 12.4049C148.026 13.3699 148.332 14.1367 148.944 14.7053Z" fill="white"></path><path d="M170.205 5.58113C172.041 5.58113 173.609 6.24456 174.907 7.57141C176.206 8.88108 176.855 10.4922 176.855 12.4049C176.855 14.3177 176.206 15.9375 174.907 17.2644C173.609 18.574 172.041 19.2288 170.205 19.2288C168.423 19.2288 167.041 18.7032 166.059 17.652V18.8669H161.885V0.773438H166.059V7.15785C167.041 6.10671 168.423 5.58113 170.205 5.58113ZM166.977 14.7054C167.608 15.2741 168.406 15.5584 169.37 15.5584C170.334 15.5584 171.123 15.2741 171.735 14.7054C172.366 14.1368 172.681 13.3699 172.681 12.4049C172.681 11.4399 172.366 10.6731 171.735 10.1045C171.123 9.53589 170.334 9.25156 169.37 9.25156C168.406 9.25156 167.608 9.53589 166.977 10.1045C166.365 10.6731 166.059 11.4399 166.059 12.4049C166.059 13.3699 166.365 14.1368 166.977 14.7054Z" fill="white"></path><path d="M96.2357 33.8923L96.7524 34.8769C96.3978 35.2462 95.9166 35.5385 95.3088 35.7538C94.701 35.9692 94.0628 36.0769 93.3942 36.0769C91.7937 36.0769 90.492 35.5744 89.4891 34.5692C88.4964 33.5538 88 32.2103 88 30.5385C88 28.9487 88.4761 27.6308 89.4283 26.5846C90.3907 25.5282 91.6823 25 93.3031 25C94.6605 25 95.7394 25.3487 96.5396 26.0462L95.947 27.0308C95.2379 26.4974 94.3617 26.2308 93.3183 26.2308C92.1634 26.2308 91.2163 26.6308 90.4768 27.4308C89.7373 28.2308 89.3676 29.2667 89.3676 30.5385C89.3676 31.8205 89.7474 32.8615 90.5072 33.6615C91.2771 34.4513 92.2799 34.8462 93.5158 34.8462C94.5592 34.8462 95.4658 34.5282 96.2357 33.8923Z" fill="#838383"></path><path d="M98.4376 35.0615C97.769 34.3744 97.4347 33.5077 97.4347 32.4615C97.4347 31.4154 97.769 30.5538 98.4376 29.8769C99.1163 29.1897 99.9976 28.8462 101.082 28.8462C102.165 28.8462 103.042 29.1897 103.71 29.8769C104.389 30.5538 104.728 31.4154 104.728 32.4615C104.728 33.5077 104.389 34.3744 103.71 35.0615C103.042 35.7385 102.165 36.0769 101.082 36.0769C99.9976 36.0769 99.1163 35.7385 98.4376 35.0615ZM98.7263 32.4615C98.7263 33.1795 98.9441 33.7692 99.3797 34.2308C99.8254 34.6923 100.393 34.9231 101.082 34.9231C101.77 34.9231 102.333 34.6974 102.768 34.2462C103.214 33.7846 103.437 33.1897 103.437 32.4615C103.437 31.7436 103.214 31.1538 102.768 30.6923C102.333 30.2308 101.77 30 101.082 30C100.403 30 99.8406 30.2308 99.3949 30.6923C98.9492 31.1436 98.7263 31.7333 98.7263 32.4615Z" fill="#838383"></path><path d="M116.633 31.3846V35.9231H115.417V31.7231C115.417 30.5949 114.926 30.0308 113.943 30.0308C113.548 30.0308 113.188 30.1231 112.864 30.3077C112.55 30.4923 112.312 30.7333 112.15 31.0308C112.16 31.1128 112.165 31.2769 112.165 31.5231V35.9231H110.95V31.4615C110.95 31.0308 110.823 30.6872 110.57 30.4308C110.317 30.1641 109.957 30.0308 109.491 30.0308C108.731 30.0308 108.134 30.3436 107.698 30.9692V35.9231H106.482V29H107.698V29.8769C107.951 29.5795 108.28 29.3385 108.686 29.1538C109.101 28.9692 109.526 28.8769 109.962 28.8769C110.489 28.8769 110.929 28.9846 111.284 29.2C111.649 29.4154 111.897 29.7077 112.029 30.0769C112.282 29.7179 112.616 29.4308 113.031 29.2154C113.457 28.9897 113.923 28.8769 114.429 28.8769C115.898 28.8769 116.633 29.7128 116.633 31.3846Z" fill="#838383"></path><path d="M118.68 39V29H119.896V29.8154C120.139 29.5282 120.468 29.2974 120.883 29.1231C121.309 28.9385 121.754 28.8462 122.22 28.8462C123.183 28.8462 123.948 29.1744 124.515 29.8308C125.092 30.4769 125.381 31.3179 125.381 32.3538C125.381 33.4205 125.052 34.3077 124.393 35.0154C123.735 35.7231 122.879 36.0769 121.825 36.0769C121.015 36.0769 120.372 35.9179 119.896 35.6V39H118.68ZM121.871 30C121.06 30 120.402 30.3179 119.896 30.9538V34.3846C120.422 34.7436 121.03 34.9231 121.719 34.9231C122.438 34.9231 123.011 34.6872 123.436 34.2154C123.872 33.7436 124.089 33.1385 124.089 32.4C124.089 31.6821 123.892 31.1026 123.497 30.6615C123.102 30.2205 122.56 30 121.871 30Z" fill="#838383"></path><path d="M127.488 30.4615L127.169 29.4769C127.837 29.0564 128.597 28.8462 129.448 28.8462C130.39 28.8462 131.064 29.0821 131.469 29.5538C131.874 30.0256 132.077 30.7333 132.077 31.6769V35.9231H130.922V35.0308C130.395 35.6974 129.666 36.0308 128.734 36.0308C128.106 36.0308 127.599 35.841 127.214 35.4615C126.829 35.0718 126.637 34.5487 126.637 33.8923C126.637 33.2051 126.875 32.6667 127.351 32.2769C127.837 31.8872 128.46 31.6923 129.22 31.6923C129.95 31.6923 130.517 31.841 130.922 32.1385C130.922 31.4 130.821 30.8513 130.618 30.4923C130.416 30.1333 130 29.9538 129.372 29.9538C128.754 29.9538 128.126 30.1231 127.488 30.4615ZM129.159 34.9231C129.838 34.9231 130.426 34.6256 130.922 34.0308V33.1538C130.497 32.8462 129.985 32.6923 129.387 32.6923C128.982 32.6923 128.638 32.7897 128.354 32.9846C128.07 33.1795 127.929 33.4615 127.929 33.8308C127.929 34.1692 128.035 34.4359 128.248 34.6308C128.471 34.8256 128.774 34.9231 129.159 34.9231Z" fill="#838383"></path><path d="M134.112 35.9231V29H135.328V29.8462C135.581 29.5692 135.91 29.3385 136.316 29.1538C136.721 28.9692 137.136 28.8769 137.562 28.8769C139.456 28.8769 140.403 29.8923 140.403 31.9231V35.9231H139.188V32.1538C139.188 30.7385 138.544 30.0308 137.258 30.0308C136.488 30.0308 135.845 30.3282 135.328 30.9231V35.9231H134.112Z" fill="#838383"></path><path d="M148.667 29L145.932 35.9231C145.445 37.1231 145.015 37.9333 144.64 38.3538C144.265 38.7846 143.824 39 143.318 39C142.882 39 142.452 38.8564 142.026 38.5692L142.421 37.6308C142.746 37.7846 142.999 37.8615 143.181 37.8615C143.465 37.8615 143.718 37.7385 143.941 37.4923C144.174 37.2462 144.407 36.8462 144.64 36.2923L144.792 35.9231L141.51 29H142.969L144.974 33.4C145.015 33.4923 145.152 33.841 145.385 34.4462C145.476 34.1077 145.582 33.7538 145.704 33.3846L147.284 29H148.667Z" fill="#838383"></path></svg> 