<svg width="13" height="12" viewBox="0 0 13 12" fill="none" xmlns="http://www.w3.org/2000/svg">
<g clip-path="url(#clip0_25_1963)">
<path d="M0.982818 10.2846L1.55613 11.3077C1.67526 11.523 1.84651 11.6923 2.04754 11.8153L4.09507 8.15381H0C0 8.39227 0.0595647 8.63073 0.178694 8.84612L0.982818 10.2846Z" fill="#0066DA"/>
<path d="M6.5 3.84611L4.45246 0.18457C4.25143 0.307647 4.08018 0.476878 3.96105 0.692263L0.178694 7.46149C0.0617557 7.67223 0.000155697 7.91089 0 8.1538H4.09507L6.5 3.84611Z" fill="#00AC47"/>
<path d="M10.9524 11.8153C11.1534 11.6923 11.3247 11.523 11.4438 11.3077L11.682 10.8846L12.8212 8.84612C12.9403 8.63073 12.9999 8.39227 12.9999 8.15381H8.90454L9.77597 9.92304L10.9524 11.8153Z" fill="#EA4335"/>
<path d="M6.49993 3.84615L8.54747 0.184615C8.34644 0.0615385 8.11562 0 7.87736 0H5.1225C4.88424 0 4.65342 0.0692308 4.45239 0.184615L6.49993 3.84615Z" fill="#00832D"/>
<path d="M8.90499 8.15381H4.09514L2.04761 11.8153C2.24864 11.9384 2.47945 12 2.71771 12H10.2824C10.5207 12 10.7515 11.9307 10.9525 11.8153L8.90499 8.15381Z" fill="#2684FC"/>
<path d="M10.9301 4.07688L9.03895 0.692263C8.91982 0.476878 8.74857 0.307647 8.54754 0.18457L6.5 3.84611L8.90493 8.1538H12.9926C12.9926 7.91534 12.933 7.67688 12.8139 7.46149L10.9301 4.07688Z" fill="#FFBA00"/>
</g>
<defs>
<clipPath id="clip0_25_1963">
<rect width="13" height="12" fill="white"/>
</clipPath>
</defs>
</svg>
